<svg width="437" height="100" viewBox="0 0 437 100" fill="none" xmlns="http://www.w3.org/2000/svg">
<g clip-path="url(#clip0_1_87)">
<path d="M195.083 0H218V100H195.083V0Z" fill="#38B380"/>
<path d="M118 22.9167V0H218V22.9167H118Z" fill="#38B380"/>
<path d="M118 100L118 85.4166L191.621 11.2438L206.38 26.0025L132.583 100H118Z" fill="#38B380"/>
<path d="M52.9208 99.9772C67.9505 100.432 82.9802 94.0708 93 82.7124L78.8812 69.5365C72.9604 76.806 63.8515 81.3493 54.7426 81.3493C38.3465 81.8037 24.6832 69.0822 24.2277 53.1804C24.2277 52.2717 24.2277 51.363 24.2277 50.4543C22.8614 33.6438 35.6139 20.0137 52.0099 19.105C52.9208 19.105 53.8317 19.105 54.7426 19.105C64.3069 19.105 72.9604 23.194 78.8812 30.4635L93 17.2876C82.9802 5.92918 68.4059 -0.431554 53.3762 0.0227847C23.3168 0.0227847 1 20.9223 1 50C1 79.0777 23.3168 99.9772 52.9208 99.9772Z" fill="#38B380"/>
<path d="M281.777 3C291.844 3.00005 301.527 5.6334 310.322 11.3496L312.469 12.7441L311.43 15.084L308.117 22.5352L306.633 25.875L303.646 23.7676C297.143 19.1785 289.476 16.8653 281.363 16.8652C273.677 16.8652 268.601 18.5459 265.521 20.8662C262.535 23.1152 261.179 26.14 261.179 29.5957C261.179 31.9871 261.832 33.7469 262.892 35.1611C263.989 36.6261 265.655 37.8927 267.927 39.0254C272.595 41.353 278.87 42.6973 285.816 44.4336C292.501 46.1046 299.745 48.1339 305.3 51.9863C311.091 56.0025 315 61.9644 315 70.9902C315 78.2644 312.04 85.1365 305.929 90.1309C299.864 95.0871 290.946 98 279.293 98C272.539 98 265.687 96.8054 259.683 94.7314C253.719 92.6715 248.364 89.6642 244.812 85.875L243.347 84.3125L244.349 82.4199L248.075 75.3818L249.869 71.9941L252.727 74.5498C260.005 81.0613 269.629 84.5488 279.707 84.5488C287.615 84.5488 292.797 82.8616 295.927 80.5361C298.953 78.2874 300.306 75.2695 300.306 71.8184C300.306 69.427 299.652 67.6673 298.592 66.252C297.493 64.7857 295.827 63.517 293.555 62.3809C288.883 60.0454 282.608 58.691 275.657 56.9268C268.967 55.2288 261.722 53.1569 256.165 49.2393C250.376 45.1578 246.485 39.121 246.484 30.0098C246.484 22.775 249.31 15.9004 255.326 10.8877C261.296 5.9133 270.125 3 281.777 3Z" fill="black" stroke="black" stroke-width="6"/>
<path d="M364.305 81.5166V58.2939H410.915V40.2844H364.305V18.4834H417.098V0H341V100H419V81.5166H364.305Z" fill="black"/>
</g>
<defs>
<clipPath id="clip0_1_87">
<rect width="437" height="100" fill="white"/>
</clipPath>
</defs>
</svg>
