<svg width="32" height="32" viewBox="0 0 218 100" fill="none" xmlns="http://www.w3.org/2000/svg">
  <path d="M195.083 0H218V100H195.083V0Z" fill="#38B380"/>
  <path d="M118 22.9167V0H218V22.9167H118Z" fill="#38B380"/>
  <path d="M118 100L118 85.4166L191.621 11.2438L206.38 26.0025L132.583 100H118Z" fill="#38B380"/>
  <path d="M52.9208 99.9772C67.9505 100.432 82.9802 94.0708 93 82.7124L78.8812 69.5365C72.9604 76.806 63.8515 81.3493 54.7426 81.3493C38.3465 81.8037 24.6832 69.0822 24.2277 53.1804C24.2277 52.2717 24.2277 51.363 24.2277 50.4543C22.8614 33.6438 35.6139 20.0137 52.0099 19.105C52.9208 19.105 53.8317 19.105 54.7426 19.105C64.3069 19.105 72.9604 23.194 78.8812 30.4635L93 17.2876C82.9802 5.92918 68.4059 -0.431554 53.3762 0.0227847C23.3168 0.0227847 1 20.9223 1 50C1 79.0777 23.3168 99.9772 52.9208 99.9772Z" fill="#38B380"/>
</svg>
