<svg width="232" height="92" viewBox="0 0 232 92" fill="none" xmlns="http://www.w3.org/2000/svg">
<g clip-path="url(#clip0_1_2)">
<path d="M21.5 85.8V80.9H31.3V77.1H21.5V72.5H32.6V68.6H16.6V89.7H33V85.8H21.5Z" fill="black"/>
<path d="M81.8 90.1C85.1 90.2 88.4 88.9 90.6 86.3L87.5 83.4C86.2 85 84.2 85.9 82.2 85.9C78.5 85.9 75.4 82.9 75.4 79.1C75.4 75.4 78.4 72.3 82.2 72.3C84.3 72.3 86.2 73.2 87.5 74.8L90.6 71.9C88.4 69.4 85.2 68 81.9 68.1C75.3 68.1 70.4 72.7 70.4 79.1C70.4 85.5 75.3 90.2 81.8 90.1Z" fill="black"/>
<path d="M113.7 68.6V76.9H104.1V68.6H99.2V89.7H104.1V81.1H113.7V89.7H118.6V68.6H113.7Z" fill="black"/>
<path d="M141.8 81.5H135L138.4 73.4L141.8 81.5ZM150.3 89.7L140.8 68.5H136L126.5 89.7H131.5L133.4 85.2H143.2L145.1 89.7H150.3Z" fill="black"/>
<path d="M172.3 68.6V81.4L161.8 68.6H157.7V89.7H162.6V76.9L173.1 89.7H177.2V68.6H172.3Z" fill="black"/>
<path d="M201.2 85C200 85.6 198.7 85.9 197.4 85.9C193.8 86.1 190.7 83.3 190.5 79.7C190.5 79.5 190.5 79.3 190.5 79.1C190.5 75.1 193.3 72.3 197.4 72.3C199.5 72.3 201.5 73.1 202.9 74.7L206.1 71.8C203.8 69.3 200.6 68 197.2 68.1C190.4 68.1 185.5 72.7 185.5 79.1C185.5 85.5 190.4 90.1 197.1 90.1C200.2 90.1 203.2 89.2 205.7 87.4V78.7H201.2V85Z" fill="black"/>
<path d="M219.8 85.8V80.9H229.7V77.1H219.8V72.5H231V68.6H215V89.7H231.4V85.8H219.8Z" fill="black"/>
<path d="M116.6 56.7C122 56.7 124.5 54 124.5 50.9C124.5 43.2 111.5 46.7 111.5 40.9C111.5 38.8 113.2 37.1 117.1 37.1C119.2 37.1 121.2 37.7 122.9 38.9L123.7 37.1C121.7 35.8 119.5 35.2 117.2 35.2C111.8 35.2 109.4 37.9 109.4 41C109.4 48.8 122.4 45.3 122.4 51.1C122.4 53.2 120.7 54.9 116.7 54.9C114.1 54.9 111.6 54 109.7 52.3L108.8 54C110.3 55.6 113.5 56.7 116.6 56.7Z" fill="black"/>
<path d="M139.1 56.5H141.4V37.3H148.8V35.3H131.7V37.3H139.1V56.5Z" fill="black"/>
<path d="M175 45.9C175.1 50.8 171.1 54.9 166.2 54.9C161.3 55 157.2 51 157.2 46.1C157.2 41.2 161.1 37.1 166 37.1C166.1 37.1 166.1 37.1 166.2 37.1C170.9 36.9 174.9 40.6 175.1 45.4C175 45.6 175 45.8 175 45.9ZM177.3 45.9C177.3 39.7 172.5 35.1 166.2 35.1C159.9 35.1 155 39.8 155 45.9C155 52 159.7 56.7 166.1 56.7C172.5 56.7 177.3 52.1 177.3 45.9Z" fill="black"/>
<path d="M196.5 56.7C199.4 56.8 202.2 55.7 204.3 53.6L202.9 52.2C201.3 53.9 199 54.8 196.6 54.7C191.8 54.9 187.7 51.1 187.5 46.2C187.3 41.4 191.1 37.3 196 37.1C196.2 37.1 196.4 37.1 196.6 37.1C198.9 37 201.2 37.9 202.9 39.6L204.3 38.2C202.3 36.1 199.5 35 196.5 35.1C190.1 35.1 185.4 39.7 185.4 45.9C185.4 52.1 190.1 56.7 196.5 56.7Z" fill="black"/>
<path d="M228.7 56.5H231.4L221.6 44.9L230.7 35.3H228.2L215.7 48.1V35.3H213.5V56.5H215.7V51L220 46.6L228.7 56.5Z" fill="black"/>
<path d="M12.6 22.5C15.9 22.6 19.2 21.2 21.4 18.7L18.3 15.8C17 17.4 15 18.4 13 18.4C9.4 18.5 6.4 15.7 6.3 12.2C6.3 12 6.3 11.8 6.3 11.6C6 7.9 8.8 4.9 12.4 4.7C12.6 4.7 12.8 4.7 13 4.7C15.1 4.7 17 5.6 18.3 7.2L21.4 4.3C19.2 1.8 16 0.400002 12.7 0.500002C6.1 0.500002 1.2 5.1 1.2 11.5C1.2 17.9 6.1 22.5 12.6 22.5Z" fill="#38B380"/>
<path d="M42 13.8H35.3L38.7 5.7L42 13.8ZM50.5 22.1L41.1 0.900002H36.3L26.9 22.1H31.9L33.8 17.6H43.6L45.5 22.1H50.5Z" fill="#38B380"/>
<path d="M70.7 8.6C70.7 10.9 69.2 12.3 66.2 12.3H62.2V4.9H66.2C69.2 4.9 70.7 6.3 70.7 8.6ZM75.7 8.6C75.7 3.9 72.2 0.900002 66.5 0.900002H57.3V22.1H62.2V16.3H66.5C72.2 16.2 75.7 13.3 75.7 8.6Z" fill="#38B380"/>
<path d="M87.4 18.2V13.3H97.2V9.4H87.4V4.8H98.5V0.900002H82.5V22.1H98.9V18.2H87.4Z" fill="#38B380"/>
<path d="M158.5 11.5C158.6 15.2 155.8 18.2 152.1 18.4C148.4 18.5 145.4 15.7 145.2 12C145.2 11.8 145.2 11.7 145.2 11.5C145.1 7.8 147.9 4.8 151.6 4.6C155.3 4.4 158.3 7.3 158.5 11C158.5 11.2 158.5 11.3 158.5 11.5ZM163.5 11.5C163.5 5.2 158.6 0.5 151.9 0.5C145.2 0.5 140.3 5.2 140.3 11.5C140.3 17.8 145.2 22.5 151.9 22.5C158.6 22.5 163.5 17.9 163.5 11.5Z" fill="#38B380"/>
<path d="M198.8 0.900002L193.9 15.9L189 0.900002H184.5L179.5 15.8L174.7 0.900002H169.6L176.6 22.1H181.8L186.6 7.7L191.3 22.1H196.5L203.5 0.900002H198.8Z" fill="#38B380"/>
<path d="M226.5 0.900002V13.8L216 0.900002H211.9V22.1H216.8V9.2L227.3 22.1H231.4V0.900002H226.5Z" fill="#38B380"/>
<path d="M110.6 5.8H123.7L53.4 76L45.9 68.6H39.6L50.3 79.2L39.6 89.8H45.9L53.4 82.3L61 89.8H67.3L56.6 79.2L126.9 8.9V22.1H131.8V0.900002H110.6V5.8Z" fill="#38B380"/>
</g>
<defs>
<clipPath id="clip0_1_2">
<rect width="231.8" height="91.5" fill="white"/>
</clipPath>
</defs>
</svg>
